<svg width="218" height="61" viewBox="0 0 218 61" fill="none" xmlns="http://www.w3.org/2000/svg">
<g clip-path="url(#clip0_3485_342)">
<path d="M35.8006 20.4158C35.8006 13.1152 30.2059 7.19434 23.3041 7.19434C16.4023 7.19434 10.8076 13.112 10.8076 20.4158C10.8076 27.7196 16.4023 33.6372 23.3041 33.6372C24.0717 33.6372 24.82 33.5536 25.5491 33.4121L32.5344 41.9476C32.5344 41.9476 32.5312 41.9476 32.528 41.9476H36.6614L28.7543 32.2961C32.9198 30.1509 35.8006 25.6452 35.8006 20.4126" fill="white"/>
<path d="M11.5846 0.0195312H0.520508V12.8197C2.46355 7.34905 6.44278 2.80147 11.5846 0.0195312Z" fill="white"/>
<path d="M0.520508 27.9834V41.9478H14.0576C7.72423 39.3942 2.76224 34.2998 0.520508 27.9834Z" fill="white"/>
<path d="M35.0586 0.0195312C42.439 4.01073 47.4298 11.6393 47.4298 20.4032C47.4298 25.4268 45.7726 30.0677 42.9817 33.8788L49.6041 41.9512H56.3357V0.0195312H35.0586Z" fill="white"/>
<path d="M6.42678 53.5324C6.06065 53.14 5.02972 52.5547 3.76754 52.5547C2.58887 52.5547 1.94975 53.0564 1.94975 53.899C1.94975 54.822 2.7366 55.0279 4.336 55.4331C6.23408 55.9219 7.50911 56.4237 7.50911 58.2022C7.50911 60.2122 5.89686 61.0002 3.98272 61.0002C2.51821 61.0002 1.09545 60.5371 -0.00292969 59.6977L0.70042 58.3951C1.15969 58.8711 2.51821 59.6301 4.03411 59.6301C5.18709 59.6301 5.86474 59.1959 5.86474 58.3823C5.86474 57.4206 4.90125 57.1473 3.23441 56.7131C1.33633 56.2114 0.372833 55.6421 0.372833 54.1338C0.372833 52.2331 1.89194 51.2007 3.84462 51.2007C5.17424 51.2007 6.28547 51.6767 7.11407 52.2877L6.42357 53.5356L6.42678 53.5324Z" fill="white"/>
<path d="M17.9018 59.6008C19.7999 59.6008 20.9111 57.8094 20.9111 56.0856C20.9111 54.2524 19.7196 52.5832 17.9018 52.5832C16.084 52.5832 14.8925 54.3456 14.8925 56.0856C14.8925 57.8255 16.0583 59.6008 17.9018 59.6008ZM13.3477 56.0823C13.3477 53.5159 15.3003 51.1938 17.9307 51.1938C20.561 51.1938 22.4591 53.6767 22.4591 56.0952C22.4591 58.6617 20.5193 60.9676 17.8889 60.9676C15.2586 60.9676 13.3477 58.5491 13.3477 56.0791" fill="white"/>
<path d="M29.0137 60.9033V51.2646H30.5328V59.559H35.6971V60.9033H29.0137Z" fill="white"/>
<path d="M48.062 56.1502V51.2617H49.594V56.1502C49.594 58.7842 48.4024 60.9712 45.4317 60.9712C42.4609 60.9712 41.2822 58.6491 41.2822 56.1502V51.2617H42.8013V56.1502C42.8013 57.9159 43.4372 59.5979 45.4317 59.5979C47.4261 59.5979 48.062 57.874 48.062 56.1502Z" fill="white"/>
<path d="M63.5421 52.609H60.3433V60.9033H58.8242V52.609H55.6094V51.2646H63.5421V52.609Z" fill="white"/>
<path d="M71.1636 51.2778H69.6445V60.9037H71.1636V51.2778Z" fill="white"/>
<path d="M82.2758 59.6008C84.1739 59.6008 85.2851 57.8094 85.2851 56.0856C85.2851 54.2524 84.0936 52.5832 82.2758 52.5832C80.458 52.5832 79.2665 54.3456 79.2665 56.0856C79.2665 57.8255 80.4323 59.6008 82.2758 59.6008ZM77.7217 56.0823C77.7217 53.5159 79.6744 51.1938 82.3047 51.1938C84.935 51.1938 86.8331 53.6767 86.8331 56.0952C86.8331 58.6617 84.8933 60.9676 82.263 60.9676C79.6326 60.9676 77.7217 58.5491 77.7217 56.0791" fill="white"/>
<path d="M94.9078 54.1141V60.9033H93.3887V51.2646H94.5802L100.085 58.2147V51.2775H101.617V60.9033H100.358L94.9078 54.1141Z" fill="white"/>
<path d="M114.463 53.5324C114.097 53.14 113.066 52.5547 111.804 52.5547C110.625 52.5547 109.986 53.0564 109.986 53.899C109.986 54.822 110.773 55.0279 112.372 55.4331C114.27 55.9219 115.545 56.4237 115.545 58.2022C115.545 60.2122 113.933 61.0002 112.019 61.0002C110.554 61.0002 109.132 60.5371 108.033 59.6977L108.737 58.3951C109.196 58.8711 110.554 59.6301 112.07 59.6301C113.223 59.6301 113.901 59.1959 113.901 58.3823C113.901 57.4206 112.937 57.1473 111.271 56.7131C109.372 56.2114 108.409 55.6421 108.409 54.1338C108.409 52.2331 109.928 51.2007 111.881 51.2007C113.21 51.2007 114.322 51.6767 115.15 52.2877L114.46 53.5356L114.463 53.5324Z" fill="white"/>
<path d="M136.948 51.2646H130.345V52.6604H136.948V51.2646Z" fill="white"/>
<path d="M136.948 56.7806V55.3848C136.948 55.3848 130.435 55.4137 130.345 55.3848V56.7806H136.948Z" fill="white"/>
<path d="M136.948 59.5078H130.345V60.9036H136.948V59.5078Z" fill="white"/>
<path d="M177.129 51.2646H170.525V52.6604H177.129V51.2646Z" fill="white"/>
<path d="M177.129 56.7806V55.3848C177.129 55.3848 170.615 55.4137 170.525 55.3848V56.7806H177.129Z" fill="white"/>
<path d="M177.129 59.5078H170.525V60.9036H177.129V59.5078Z" fill="white"/>
<path d="M144.286 51.2646L146.958 55.0661L149.63 51.2646H151.297L147.771 56.1499L151.188 60.9033H149.521L146.958 57.237L144.395 60.9033H142.716L146.146 56.1499L142.606 51.2646H144.286Z" fill="white"/>
<path d="M158.799 56.2046H161.308C162.162 56.2046 162.759 55.4327 162.759 54.4004C162.759 53.368 162.04 52.609 161.227 52.609H158.799V56.2078V56.2046ZM157.28 60.9033V51.2646H161.321C163.055 51.2646 164.304 52.8534 164.304 54.4004C164.304 55.9473 163.138 57.5489 161.404 57.5489H158.799V60.9033H157.28Z" fill="white"/>
<path d="M185.125 56.2046H187.785C188.639 56.2046 189.236 55.3748 189.236 54.4004C189.236 53.4259 188.504 52.609 187.704 52.609H185.128V56.2078L185.125 56.2046ZM183.609 60.9033V51.2646H187.797C189.532 51.2646 190.781 52.8534 190.781 54.4004C190.781 55.69 190.036 56.8703 188.896 57.237L191.189 60.9033H189.467L187.351 57.5489H185.128V60.9033H183.609Z" fill="white"/>
<path d="M204.456 52.609H201.257V60.9033H199.738V52.609H196.523V51.2646H204.456V52.609Z" fill="white"/>
<path d="M216.288 53.5324C215.922 53.14 214.891 52.5547 213.629 52.5547C212.45 52.5547 211.811 53.0564 211.811 53.899C211.811 54.822 212.598 55.0279 214.197 55.4331C216.095 55.9219 217.37 56.4237 217.37 58.2022C217.37 60.2122 215.758 61.0002 213.844 61.0002C212.38 61.0002 210.957 60.5371 209.858 59.6977L210.562 58.3951C211.021 58.8711 212.38 59.6301 213.895 59.6301C215.048 59.6301 215.726 59.1959 215.726 58.3823C215.726 57.4206 214.763 57.1473 213.096 56.7131C211.198 56.2114 210.234 55.6421 210.234 54.1338C210.234 52.2331 211.753 51.2007 213.706 51.2007C215.036 51.2007 216.147 51.6767 216.975 52.2877L216.285 53.5356L216.288 53.5324Z" fill="white"/>
<path d="M100.694 21.2298H109.822C110.76 21.2298 111.694 21.114 112.629 20.8792C113.448 20.6445 114.267 20.2939 114.851 19.8244C115.436 19.3548 116.02 18.7695 116.374 17.9494C116.724 17.245 116.958 16.3091 116.958 15.1385C116.958 14.0836 116.724 13.1477 116.374 12.4434C116.024 11.739 115.436 11.1537 114.851 10.6874C114.267 10.2178 113.448 9.86727 112.629 9.74827C111.81 9.51349 110.875 9.39771 110.053 9.39771H95.543V0.0195312H112.276C113.445 0.0195312 114.617 0.135311 115.67 0.370088C116.839 0.604864 117.893 0.83964 118.946 1.30598C120 1.77231 121.053 2.24508 121.988 2.94619C123.744 4.35163 125.029 6.11085 125.848 8.10162C126.667 10.0924 127.136 12.2022 127.136 14.4277C127.136 16.0679 126.901 17.5924 126.433 19.1136C125.964 20.638 125.264 21.9245 124.326 23.0984C123.391 24.269 122.338 25.3239 121.05 26.0282C119.762 26.8483 118.243 27.3179 116.602 27.6684L128.071 41.9641H115.783L100.688 21.2234L100.694 21.2298Z" fill="white"/>
<path d="M141.206 41.951L142.963 36.7216L150.218 16.6369L157.47 36.7216L159.342 41.951H170.811L167.535 33.0359L159.696 11.1696L155.482 0H145.066L140.856 11.1696L133.016 33.0359L129.737 41.951H141.206Z" fill="white"/>
<path d="M175.272 0H186.147V41.9413H175.272V9.39748V0Z" fill="white"/>
<path d="M194.567 0H205.378V32.4988H218V41.951H194.567V0Z" fill="white"/>
<path d="M70.1037 25.0891H80.0855V14.4566L70.1037 25.0891ZM79.0064 41.9704V33.7404H60.5684V25.1502L82.0639 0.0419922H88.5996V25.0891H93.8763V33.7372H88.5996V41.9672H79.0032L79.0064 41.9704Z" fill="white"/>
</g>
<defs>
<clipPath id="clip0_3485_342">
<rect width="218" height="61" fill="white"/>
</clipPath>
</defs>
</svg>
